<?xml version="1.0" encoding="utf-8"?>
<!-- Generator: Adobe Illustrator 18.1.1, SVG Export Plug-In . SVG Version: 6.00 Build 0)  -->
<svg version="1.1" id="Layer_1" xmlns="http://www.w3.org/2000/svg" xmlns:xlink="http://www.w3.org/1999/xlink" x="0px" y="0px"
	 viewBox="0 0 200 200" enable-background="new 0 0 200 200" xml:space="preserve">
<g>
	<g>
		<path fill="#D59529" d="M200,16.8C200,7.5,192.5,0,183.2,0H16.8C7.5,0,0,7.5,0,16.8v166.3c0,9.3,7.5,16.8,16.8,16.8h166.3
			c9.3,0,16.8-7.5,16.8-16.8V16.8z"/>
	</g>
	<path fill="#FFFFFF" stroke="#FFFFFF" stroke-miterlimit="10" d="M200,78.8l-13.8-4.7L200,33.4V16.8C200,7.5,192.5,0,183.2,0h-7.4
		l-21.5,63.3L23,18.8C20.6,20,19.1,22,21,25.1c0.4,0.7,1,1.4,1.3,2.1L79,110.5l10.5-8.6L76.8,74.8l66,22.4L107.9,200h35.5l31.2-92
		l25.3,8.6V78.8z"/>
</g>
</svg>
