<?xml version="1.0" encoding="utf-8"?>
<!-- Generator: Adobe Illustrator 16.0.0, SVG Export Plug-In . SVG Version: 6.00 Build 0)  -->
<!DOCTYPE svg PUBLIC "-//W3C//DTD SVG 1.1//EN" "http://www.w3.org/Graphics/SVG/1.1/DTD/svg11.dtd">
<svg version="1.1" id="plan" xmlns="http://www.w3.org/2000/svg" xmlns:xlink="http://www.w3.org/1999/xlink" x="0px" y="0px"
	 width="235px" height="210px" viewBox="0 0 235 210" enable-background="new 0 0 235 210" xml:space="preserve">
<path display="none" d="M118.426,18.676c23.058,0,41.75,18.691,41.75,41.75c0,23.058-18.692,41.75-41.75,41.75
	c-23.062,0-41.752-18.691-41.752-41.75C76.674,37.366,95.363,18.676,118.426,18.676 M118.426,13.676
	c-25.778,0-46.752,20.972-46.752,46.75c0,25.776,20.974,46.75,46.752,46.75s46.75-20.977,46.75-46.75
	C165.176,34.65,144.204,13.676,118.426,13.676L118.426,13.676z M126.622,46.244l-10.401,29.552l14.777,5.203l10.396-29.555
	L126.622,46.244z M124.649,75.443l-5.254-1.85l8.321-23.646l5.254,1.848L124.649,75.443z M142.5,35.731l-6.896-2.427
	c-2.176-0.769-4.562,0.376-5.327,2.553l-2.406,6.841l14.776,5.201l2.406-6.841C145.82,38.882,144.678,36.496,142.5,35.731z
	 M136.105,42.892l-5.254-1.852l1.541-4.378l5.254,1.851L136.105,42.892z M127.303,79.699l-3.244,1.555l-2.588-0.911l-1.559-3.242
	l-3.691-1.303l4.788,9.989L130.998,81L127.303,79.699z M121.072,82.145H94.814v3.479h26.258V82.145z M114.295,63.689H94.815v3.479
	h19.479V63.689z M114.295,46.159H94.815v3.479h19.479V46.159z"/>
<g display="none">
	<path display="inline" d="M126.622,46.244l-10.401,29.552l14.777,5.203l10.396-29.555L126.622,46.244z M124.649,75.443l-5.254-1.85
		l8.321-23.646l5.254,1.848L124.649,75.443z"/>
	<path display="inline" d="M142.5,35.731l-6.896-2.427c-2.176-0.769-4.562,0.376-5.327,2.553l-2.406,6.841l14.776,5.201l2.406-6.841
		C145.82,38.882,144.678,36.496,142.5,35.731z M136.105,42.892l-5.254-1.852l1.541-4.378l5.254,1.851L136.105,42.892z"/>
	<polygon display="inline" points="124.059,81.254 121.471,80.343 119.912,77.101 116.221,75.798 119.263,82.145 94.814,82.145 
		94.814,85.623 120.93,85.623 121.009,85.787 130.998,81 127.303,79.699 	"/>
	<rect x="94.815" y="63.689" display="inline" width="19.479" height="3.479"/>
	<rect x="94.815" y="46.159" display="inline" width="19.479" height="3.479"/>
</g>
<path display="none" d="M118.426,18.676c23.058,0,41.75,18.691,41.75,41.75c0,23.058-18.692,41.75-41.75,41.75
	c-23.062,0-41.752-18.691-41.752-41.75C76.674,37.366,95.363,18.676,118.426,18.676"/>
<path d="M43.194,119.666h22.681c3.646,0,6.624,0.529,8.928,1.584c2.304,1.057,4.079,2.377,5.328,3.961
	c1.247,1.584,2.099,3.312,2.556,5.184c0.456,1.873,0.685,3.6,0.685,5.184s-0.229,3.301-0.685,5.148
	c-0.457,1.848-1.309,3.564-2.556,5.148c-1.249,1.584-3.024,2.893-5.328,3.924c-2.304,1.033-5.281,1.549-8.928,1.549H52.194v19.727
	h-9V119.666z M52.194,144.002h13.177c1.008,0,2.039-0.143,3.096-0.432c1.055-0.287,2.027-0.756,2.916-1.404
	c0.888-0.646,1.607-1.512,2.16-2.592c0.551-1.08,0.828-2.436,0.828-4.068c0-1.68-0.241-3.07-0.721-4.176
	c-0.48-1.104-1.128-1.979-1.943-2.627c-0.817-0.648-1.753-1.092-2.809-1.332c-1.057-0.24-2.185-0.361-3.384-0.361h-13.32V144.002z
	 M93.881,119.666h8.208v51.408h-8.208V119.666z M145.793,162.795c0,1.008,0.133,1.729,0.396,2.16s0.779,0.648,1.549,0.648
	c0.238,0,0.527,0,0.863,0s0.721-0.049,1.152-0.145v5.688c-0.289,0.096-0.66,0.203-1.117,0.324c-0.457,0.119-0.924,0.227-1.404,0.324
	c-0.479,0.096-0.959,0.168-1.439,0.215c-0.48,0.049-0.889,0.072-1.223,0.072c-1.682,0-3.074-0.336-4.178-1.008
	s-1.824-1.848-2.16-3.527c-1.631,1.584-3.635,2.736-6.012,3.455c-2.375,0.721-4.668,1.08-6.875,1.08
	c-1.682,0-3.289-0.229-4.824-0.684c-1.537-0.455-2.892-1.127-4.068-2.016c-1.177-0.889-2.113-2.016-2.809-3.385
	c-0.696-1.367-1.044-2.963-1.044-4.787c0-2.305,0.42-4.176,1.261-5.617c0.839-1.439,1.943-2.566,3.312-3.383
	c1.368-0.816,2.903-1.404,4.608-1.764c1.703-0.361,3.42-0.637,5.148-0.828c1.486-0.289,2.902-0.492,4.248-0.613
	c1.344-0.119,2.531-0.322,3.564-0.611c1.031-0.287,1.846-0.73,2.447-1.332c0.6-0.6,0.9-1.5,0.9-2.699
	c0-1.057-0.252-1.92-0.756-2.592s-1.129-1.189-1.873-1.549s-1.572-0.6-2.484-0.721c-0.912-0.119-1.775-0.18-2.592-0.18
	c-2.303,0-4.199,0.48-5.688,1.441c-1.488,0.959-2.328,2.447-2.52,4.463h-8.208c0.145-2.4,0.72-4.393,1.729-5.977
	c1.008-1.584,2.291-2.855,3.851-3.814c1.561-0.961,3.324-1.633,5.293-2.018c1.967-0.383,3.982-0.576,6.047-0.576
	c1.824,0,3.625,0.193,5.4,0.576c1.775,0.385,3.371,1.008,4.789,1.873c1.414,0.863,2.555,1.98,3.42,3.348
	c0.863,1.367,1.295,3.037,1.295,5.004V162.795z M137.586,152.426c-1.25,0.818-2.785,1.309-4.609,1.477
	c-1.824,0.17-3.648,0.422-5.471,0.756c-0.865,0.145-1.705,0.35-2.52,0.613c-0.818,0.264-1.537,0.623-2.16,1.08
	c-0.625,0.455-1.117,1.055-1.477,1.799s-0.541,1.645-0.541,2.701c0,0.912,0.264,1.68,0.793,2.303
	c0.527,0.625,1.162,1.117,1.908,1.477c0.744,0.359,1.559,0.611,2.447,0.756s1.691,0.217,2.412,0.217
	c0.912,0,1.896-0.119,2.953-0.361c1.055-0.238,2.051-0.648,2.986-1.223c0.938-0.576,1.717-1.309,2.34-2.197
	c0.625-0.887,0.938-1.98,0.938-3.275V152.426z M158.25,133.852h7.775v5.471l0.145,0.145c1.246-2.062,2.879-3.684,4.895-4.859
	c2.018-1.176,4.248-1.766,6.697-1.766c4.078,0,7.295,1.057,9.648,3.168c2.35,2.113,3.527,5.281,3.527,9.506v25.559h-8.209v-23.4
	c-0.096-2.926-0.719-5.051-1.871-6.371s-2.953-1.98-5.4-1.98c-1.393,0-2.641,0.252-3.744,0.756s-2.041,1.201-2.809,2.088
	c-0.768,0.889-1.367,1.934-1.799,3.133c-0.432,1.201-0.648,2.473-0.648,3.816v21.959h-8.207V133.852z M42.9,179.09h3.971
	l4.288,12.262h0.064l4.161-12.262h3.78l-6.384,17.312c-0.297,0.74-0.587,1.449-0.874,2.127c-0.286,0.678-0.635,1.275-1.048,1.795
	c-0.413,0.52-0.926,0.932-1.541,1.238s-1.397,0.461-2.35,0.461c-0.847,0-1.684-0.062-2.509-0.189v-3.051
	c0.296,0.043,0.582,0.09,0.857,0.143c0.275,0.053,0.561,0.08,0.857,0.08c0.423,0,0.773-0.053,1.048-0.158
	c0.275-0.107,0.503-0.26,0.683-0.461c0.18-0.201,0.333-0.439,0.46-0.715s0.243-0.594,0.35-0.953l0.413-1.27L42.9,179.09z
	 M70.312,195.957c-1.313,0-2.483-0.217-3.51-0.65c-1.027-0.436-1.896-1.033-2.604-1.795c-0.71-0.764-1.25-1.674-1.62-2.732
	c-0.371-1.059-0.556-2.223-0.556-3.494c0-1.248,0.185-2.402,0.556-3.461c0.37-1.059,0.91-1.971,1.62-2.732
	c0.709-0.762,1.577-1.361,2.604-1.795c1.027-0.434,2.197-0.65,3.51-0.65s2.482,0.217,3.51,0.65c1.027,0.434,1.895,1.033,2.605,1.795
	c0.709,0.762,1.249,1.674,1.62,2.732c0.37,1.059,0.556,2.213,0.556,3.461c0,1.271-0.186,2.436-0.556,3.494
	c-0.371,1.059-0.911,1.969-1.62,2.732c-0.71,0.762-1.578,1.359-2.605,1.795C72.794,195.74,71.625,195.957,70.312,195.957z
	 M70.312,193.098c0.805,0,1.503-0.168,2.097-0.508c0.592-0.338,1.08-0.783,1.461-1.334s0.662-1.17,0.842-1.857
	c0.18-0.689,0.27-1.393,0.27-2.113c0-0.699-0.09-1.396-0.27-2.096c-0.18-0.699-0.46-1.318-0.842-1.859
	c-0.381-0.539-0.869-0.979-1.461-1.316c-0.593-0.34-1.292-0.51-2.097-0.51s-1.504,0.17-2.096,0.51
	c-0.593,0.338-1.08,0.777-1.461,1.316c-0.381,0.541-0.662,1.16-0.841,1.859c-0.18,0.699-0.27,1.396-0.27,2.096
	c0,0.721,0.09,1.424,0.27,2.113c0.18,0.688,0.46,1.307,0.841,1.857c0.381,0.551,0.868,0.996,1.461,1.334
	C68.808,192.93,69.507,193.098,70.312,193.098z M97.628,195.512h-3.557v-2.287h-0.064c-0.444,0.826-1.106,1.488-1.985,1.986
	c-0.879,0.496-1.774,0.746-2.684,0.746c-2.16,0-3.722-0.535-4.685-1.604c-0.964-1.07-1.445-2.686-1.445-4.844v-10.42h3.621v10.07
	c0,1.439,0.275,2.457,0.826,3.049c0.55,0.594,1.323,0.889,2.319,0.889c0.762,0,1.397-0.115,1.906-0.35
	c0.508-0.232,0.921-0.545,1.239-0.936c0.318-0.393,0.545-0.863,0.683-1.414c0.137-0.551,0.206-1.145,0.206-1.779v-9.529h3.621
	V195.512z M103.027,179.09h3.399v3.178h0.063c0.105-0.445,0.312-0.879,0.619-1.303c0.307-0.424,0.678-0.811,1.112-1.16
	c0.434-0.35,0.916-0.629,1.445-0.842c0.529-0.211,1.069-0.316,1.62-0.316c0.423,0,0.715,0.01,0.874,0.031
	c0.159,0.021,0.323,0.043,0.493,0.062v3.494c-0.254-0.041-0.514-0.078-0.778-0.111c-0.265-0.031-0.524-0.047-0.778-0.047
	c-0.614,0-1.191,0.123-1.731,0.365c-0.54,0.244-1.012,0.604-1.414,1.08c-0.402,0.477-0.72,1.064-0.953,1.764
	c-0.233,0.697-0.349,1.504-0.349,2.414v7.812h-3.621V179.09z M128.722,179.09h3.843l3.209,12.262h0.062l3.082-12.262h3.652
	l2.954,12.262h0.063l3.335-12.262h3.685l-5.146,16.422h-3.716l-3.05-12.197h-0.063l-3.018,12.197h-3.812L128.722,179.09z
	 M170.268,191.859c0,0.445,0.059,0.762,0.175,0.953c0.116,0.189,0.344,0.285,0.683,0.285c0.105,0,0.232,0,0.381,0
	s0.318-0.02,0.509-0.062v2.51c-0.127,0.041-0.292,0.09-0.492,0.143c-0.202,0.053-0.408,0.1-0.62,0.143
	c-0.211,0.041-0.424,0.074-0.635,0.096c-0.212,0.02-0.393,0.031-0.54,0.031c-0.741,0-1.355-0.148-1.843-0.445
	c-0.486-0.295-0.805-0.814-0.952-1.557c-0.72,0.699-1.604,1.207-2.652,1.525s-2.06,0.477-3.033,0.477
	c-0.741,0-1.45-0.102-2.128-0.303c-0.678-0.199-1.276-0.496-1.795-0.889c-0.52-0.391-0.932-0.889-1.238-1.492
	c-0.308-0.604-0.461-1.309-0.461-2.113c0-1.016,0.186-1.842,0.556-2.477c0.37-0.637,0.857-1.133,1.461-1.494
	c0.604-0.359,1.281-0.619,2.033-0.777c0.751-0.158,1.509-0.281,2.271-0.365c0.656-0.127,1.281-0.217,1.875-0.27
	c0.592-0.053,1.116-0.143,1.572-0.271c0.455-0.127,0.814-0.322,1.08-0.586c0.264-0.266,0.396-0.662,0.396-1.191
	c0-0.467-0.111-0.848-0.334-1.145c-0.223-0.295-0.498-0.523-0.826-0.682c-0.328-0.16-0.693-0.266-1.096-0.318
	s-0.783-0.08-1.143-0.08c-1.017,0-1.854,0.213-2.51,0.637s-1.027,1.08-1.111,1.969h-3.621c0.063-1.059,0.317-1.938,0.762-2.637
	c0.445-0.699,1.012-1.26,1.699-1.684c0.688-0.424,1.467-0.719,2.335-0.889s1.757-0.254,2.669-0.254c0.804,0,1.598,0.084,2.381,0.254
	s1.488,0.443,2.113,0.826c0.624,0.381,1.127,0.873,1.508,1.477c0.382,0.604,0.572,1.34,0.572,2.207V191.859z M166.646,187.285
	c-0.551,0.361-1.229,0.578-2.033,0.652s-1.609,0.186-2.414,0.332c-0.381,0.064-0.752,0.154-1.111,0.271
	c-0.359,0.115-0.678,0.275-0.953,0.477s-0.492,0.465-0.65,0.793c-0.159,0.328-0.238,0.727-0.238,1.191
	c0,0.402,0.115,0.742,0.35,1.016c0.232,0.275,0.513,0.492,0.842,0.652c0.328,0.158,0.688,0.27,1.08,0.332
	c0.391,0.064,0.746,0.096,1.063,0.096c0.401,0,0.837-0.053,1.302-0.158c0.466-0.105,0.906-0.285,1.318-0.541
	c0.413-0.254,0.758-0.576,1.033-0.969c0.274-0.391,0.412-0.873,0.412-1.443V187.285z M173.952,179.09h3.971l4.288,12.262h0.063
	l4.161-12.262h3.779l-6.385,17.312c-0.297,0.74-0.587,1.449-0.873,2.127c-0.285,0.678-0.635,1.275-1.049,1.795
	c-0.412,0.52-0.926,0.932-1.54,1.238s-1.397,0.461-2.351,0.461c-0.847,0-1.684-0.062-2.509-0.189v-3.051
	c0.296,0.043,0.582,0.09,0.857,0.143c0.274,0.053,0.562,0.08,0.857,0.08c0.423,0,0.772-0.053,1.048-0.158
	c0.275-0.107,0.504-0.26,0.684-0.461s0.334-0.439,0.461-0.715s0.242-0.594,0.35-0.953l0.412-1.27L173.952,179.09z M118.426,13.676
	c-25.778,0-46.752,20.972-46.752,46.75c0,25.776,20.974,46.75,46.752,46.75s46.75-20.977,46.75-46.75
	C165.176,34.65,144.204,13.676,118.426,13.676z M94.815,46.159h19.479v3.479H94.815V46.159z M94.815,63.689h19.479v3.479H94.815
	V63.689z M94.814,85.623v-3.479h21.53l1.623,3.479H94.814z M121.009,85.787l-0.079-0.164h-0.041l-2.337-5.08l7.687,2.738
	L121.009,85.787z M126.987,82.922l-8.78-3.128l-1.89-3.962l3.595,1.269l7.391,2.599L130.998,81L126.987,82.922z M130.998,80.999
	l-14.777-5.203l10.401-29.552l14.772,5.2L130.998,80.999z M145.053,41.059l-2.406,6.841l-14.776-5.201l2.406-6.841
	c0.766-2.177,3.151-3.321,5.327-2.553l6.896,2.427C144.678,36.496,145.82,38.882,145.053,41.059z"/>
<polygon points="134.225,85.501 118.207,79.794 115.341,73.785 112.956,74.882 120.285,90.591 122.669,89.493 118.552,80.543 
	134.027,86.056 "/>
</svg>
