<?xml version="1.0" encoding="utf-8"?>
<!-- Generator: Adobe Illustrator 16.0.0, SVG Export Plug-In . SVG Version: 6.00 Build 0)  -->
<!DOCTYPE svg PUBLIC "-//W3C//DTD SVG 1.1//EN" "http://www.w3.org/Graphics/SVG/1.1/DTD/svg11.dtd">
<svg version="1.1" id="find" xmlns="http://www.w3.org/2000/svg" xmlns:xlink="http://www.w3.org/1999/xlink" x="0px" y="0px"
	 width="235px" height="210px" viewBox="0 0 235 210" enable-background="new 0 0 235 210" xml:space="preserve">
<path display="none" d="M118.427,18.676c23.058,0,41.748,18.691,41.748,41.75s-18.69,41.75-41.748,41.75
	c-23.061,0-41.752-18.691-41.752-41.75S95.366,18.676,118.427,18.676 M118.427,13.676c-25.778,0-46.752,20.972-46.752,46.75
	c0,25.777,20.974,46.75,46.752,46.75c25.777,0,46.748-20.975,46.748-46.75C165.175,34.649,144.204,13.676,118.427,13.676
	L118.427,13.676z M118.354,31.233c-11.101,0-20.127,9.027-20.127,20.132c0,3.237,0.787,6.457,2.293,9.332l16.731,30.275
	c0.222,0.396,0.644,0.646,1.103,0.646c0.457,0,0.877-0.248,1.103-0.646l16.748-30.297c1.49-2.854,2.279-6.074,2.279-9.311
	C138.483,40.261,129.452,31.233,118.354,31.233z M130.93,55.829c-0.462,2.601-2.523,4.701-4.188,6.391
	c-0.244,0.256-0.49,0.504-0.722,0.744c-2.209,2.312-4.488,4.479-6.776,6.422l-0.789,0.672l-0.74-0.726
	c-0.691-0.659-1.375-1.315-2.058-1.959c-1.221-1.155-2.477-2.354-3.704-3.604c-0.353-0.358-0.744-0.735-1.162-1.146
	c-1.758-1.688-3.744-3.607-4.56-5.794c-0.679-1.82-0.396-3.884,0.769-5.664c1.246-1.901,3.315-3.147,5.401-3.261
	c0.115-0.009,0.226-0.009,0.341-0.009l0,0c2.733,0,4.602,1.722,5.666,3.097c1.036-1.345,2.893-2.896,5.956-3.021
	c0.093-0.002,0.185-0.002,0.277-0.002c1.944,0,3.68,0.785,4.881,2.218C130.782,51.69,131.294,53.743,130.93,55.829z"/>
<g display="none">
	<path display="inline" d="M124.641,47.969c-0.093,0-0.185,0-0.277,0.002c-3.063,0.125-4.92,1.676-5.956,3.021
		c-1.064-1.375-2.933-3.097-5.666-3.097c-0.115,0-0.226,0-0.341,0.009c-2.086,0.113-4.155,1.359-5.401,3.261
		c-1.164,1.78-1.447,3.844-0.769,5.664c0.815,2.187,2.802,4.106,4.56,5.794c0.418,0.411,0.81,0.788,1.162,1.146
		c1.228,1.251,2.483,2.449,3.704,3.604c0.683,0.644,1.366,1.3,2.058,1.959l0.74,0.726l0.789-0.672
		c2.288-1.943,4.567-4.11,6.776-6.422c0.231-0.24,0.478-0.488,0.722-0.744c1.665-1.689,3.727-3.79,4.188-6.391
		c0.364-2.086-0.147-4.139-1.408-5.643C128.32,48.754,126.585,47.969,124.641,47.969z"/>
	<path display="inline" d="M118.427,13.676c-25.778,0-46.752,20.972-46.752,46.75c0,25.777,20.974,46.75,46.752,46.75
		c25.777,0,46.748-20.975,46.748-46.75C165.175,34.649,144.204,13.676,118.427,13.676z M136.205,60.676l-16.748,30.297
		c-0.226,0.397-0.646,0.646-1.103,0.646c-0.459,0-0.881-0.25-1.103-0.646l-16.731-30.275c-1.506-2.875-2.293-6.095-2.293-9.332
		c0-11.104,9.026-20.132,20.127-20.132c11.098,0,20.129,9.027,20.13,20.132C138.484,54.602,137.695,57.822,136.205,60.676z"/>
</g>
<path d="M129.521,50.187c1.261,1.504,1.772,3.557,1.408,5.643c-0.462,2.601-2.523,4.701-4.188,6.391
	c-0.244,0.256-0.49,0.504-0.722,0.744c-2.209,2.312-4.488,4.479-6.776,6.422l-0.789,0.672l-0.74-0.726
	c-0.691-0.659-1.375-1.315-2.058-1.959c-1.221-1.155-2.477-2.354-3.704-3.604c-0.353-0.358-0.744-0.735-1.162-1.146
	c-1.758-1.688-3.744-3.607-4.56-5.794c-0.679-1.82-0.396-3.884,0.769-5.664c1.246-1.901,3.315-3.147,5.401-3.261
	c0.115-0.009,0.226-0.009,0.341-0.009c2.733,0,4.602,1.722,5.666,3.097c1.036-1.345,2.893-2.896,5.956-3.021
	c0.093-0.002,0.185-0.002,0.277-0.002C126.585,47.969,128.32,48.754,129.521,50.187z M165.175,60.426
	c0,25.775-20.971,46.75-46.748,46.75c-25.778,0-46.752-20.973-46.752-46.75c0-25.778,20.974-46.75,46.752-46.75
	C144.204,13.676,165.175,34.649,165.175,60.426z M138.484,51.365c-0.001-11.104-9.032-20.132-20.13-20.132
	c-11.101,0-20.127,9.027-20.127,20.132c0,3.237,0.787,6.457,2.293,9.332l16.731,30.275c0.222,0.396,0.644,0.646,1.103,0.646
	c0.457,0,0.877-0.248,1.103-0.646l16.748-30.297C137.695,57.822,138.484,54.602,138.484,51.365z M43.878,119.666h35.496v7.777
	H52.878v13.463h23.256v7.344H52.878v22.824h-9V119.666z M89.238,119.666h8.208v7.777h-8.208V119.666z M89.238,133.852h8.208v37.223
	h-8.208V133.852z M109.974,133.852h7.775v5.471l0.145,0.145c1.247-2.062,2.879-3.684,4.895-4.859
	c2.018-1.176,4.248-1.766,6.697-1.766c4.078,0,7.295,1.057,9.648,3.168c2.35,2.113,3.527,5.281,3.527,9.506v25.559h-8.209v-23.4
	c-0.096-2.926-0.719-5.051-1.871-6.371s-2.953-1.98-5.4-1.98c-1.393,0-2.641,0.252-3.744,0.756s-2.041,1.201-2.809,2.088
	c-0.768,0.889-1.367,1.934-1.799,3.133c-0.432,1.201-0.648,2.473-0.648,3.816v21.959h-8.208V133.852z M189.965,171.074h-7.775
	v-5.039h-0.145c-1.105,2.16-2.713,3.707-4.824,4.643c-2.113,0.938-4.346,1.404-6.695,1.404c-2.93,0-5.484-0.516-7.668-1.547
	c-2.186-1.031-3.996-2.436-5.438-4.213c-1.439-1.775-2.52-3.875-3.24-6.299c-0.719-2.424-1.08-5.029-1.08-7.812
	c0-3.359,0.457-6.264,1.369-8.713c0.91-2.447,2.123-4.463,3.637-6.047c1.512-1.584,3.238-2.748,5.184-3.492
	c1.943-0.744,3.924-1.117,5.939-1.117c1.152,0,2.328,0.109,3.527,0.324c1.199,0.217,2.352,0.566,3.457,1.045
	c1.104,0.48,2.123,1.092,3.061,1.836c0.936,0.744,1.715,1.619,2.34,2.627h0.143v-19.008h8.209V171.074z M161.309,152.859
	c0,1.584,0.203,3.145,0.611,4.68c0.408,1.537,1.033,2.904,1.873,4.104c0.838,1.201,1.908,2.16,3.203,2.881
	c1.297,0.719,2.832,1.08,4.609,1.08c1.822,0,3.395-0.385,4.715-1.152s2.4-1.775,3.24-3.025c0.84-1.246,1.463-2.65,1.871-4.211
	c0.408-1.559,0.613-3.156,0.613-4.789c0-4.127-0.926-7.344-2.771-9.646c-1.85-2.305-4.357-3.457-7.525-3.457
	c-1.92,0-3.539,0.396-4.859,1.188c-1.32,0.793-2.4,1.826-3.24,3.098s-1.439,2.711-1.801,4.318
	C161.488,149.535,161.309,151.18,161.309,152.859z M43.356,179.09h3.971l4.288,12.262h0.064l4.161-12.262h3.78l-6.384,17.312
	c-0.297,0.74-0.587,1.449-0.874,2.127c-0.286,0.678-0.635,1.275-1.048,1.795c-0.413,0.52-0.926,0.932-1.541,1.238
	s-1.397,0.461-2.35,0.461c-0.847,0-1.684-0.062-2.509-0.189v-3.051c0.296,0.043,0.582,0.09,0.857,0.143
	c0.275,0.053,0.561,0.08,0.857,0.08c0.423,0,0.773-0.053,1.048-0.158c0.275-0.107,0.503-0.26,0.683-0.461
	c0.18-0.201,0.333-0.439,0.46-0.715s0.243-0.594,0.35-0.953l0.413-1.27L43.356,179.09z M70.768,195.957
	c-1.313,0-2.483-0.217-3.51-0.65c-1.027-0.436-1.896-1.033-2.604-1.795c-0.71-0.764-1.25-1.674-1.62-2.732
	c-0.371-1.059-0.556-2.223-0.556-3.494c0-1.248,0.185-2.402,0.556-3.461c0.37-1.059,0.91-1.971,1.62-2.732
	c0.709-0.762,1.577-1.361,2.604-1.795c1.027-0.434,2.197-0.65,3.51-0.65s2.482,0.217,3.51,0.65c1.027,0.434,1.895,1.033,2.605,1.795
	c0.709,0.762,1.249,1.674,1.62,2.732c0.37,1.059,0.556,2.213,0.556,3.461c0,1.271-0.186,2.436-0.556,3.494
	c-0.371,1.059-0.911,1.969-1.62,2.732c-0.71,0.762-1.578,1.359-2.605,1.795C73.25,195.74,72.081,195.957,70.768,195.957z
	 M70.768,193.098c0.805,0,1.503-0.168,2.097-0.508c0.592-0.338,1.08-0.783,1.461-1.334s0.662-1.17,0.842-1.857
	c0.18-0.689,0.27-1.393,0.27-2.113c0-0.699-0.09-1.396-0.27-2.096c-0.18-0.699-0.46-1.318-0.842-1.859
	c-0.381-0.539-0.869-0.979-1.461-1.316c-0.593-0.34-1.292-0.51-2.097-0.51s-1.504,0.17-2.096,0.51
	c-0.593,0.338-1.08,0.777-1.461,1.316c-0.381,0.541-0.662,1.16-0.841,1.859c-0.18,0.699-0.27,1.396-0.27,2.096
	c0,0.721,0.09,1.424,0.27,2.113c0.18,0.688,0.46,1.307,0.841,1.857c0.381,0.551,0.868,0.996,1.461,1.334
	C69.264,192.93,69.963,193.098,70.768,193.098z M98.083,195.512h-3.557v-2.287h-0.064c-0.444,0.826-1.106,1.488-1.985,1.986
	c-0.879,0.496-1.774,0.746-2.684,0.746c-2.16,0-3.722-0.535-4.685-1.604c-0.964-1.07-1.445-2.686-1.445-4.844v-10.42h3.621v10.07
	c0,1.439,0.275,2.457,0.826,3.049c0.55,0.594,1.323,0.889,2.319,0.889c0.762,0,1.397-0.115,1.906-0.35
	c0.508-0.232,0.921-0.545,1.239-0.936c0.318-0.393,0.545-0.863,0.683-1.414c0.137-0.551,0.206-1.145,0.206-1.779v-9.529h3.621
	V195.512z M103.483,179.09h3.399v3.178h0.063c0.105-0.445,0.312-0.879,0.619-1.303c0.307-0.424,0.678-0.811,1.112-1.16
	c0.434-0.35,0.916-0.629,1.445-0.842c0.529-0.211,1.069-0.316,1.62-0.316c0.423,0,0.715,0.01,0.874,0.031
	c0.159,0.021,0.323,0.043,0.493,0.062v3.494c-0.254-0.041-0.514-0.078-0.778-0.111c-0.265-0.031-0.524-0.047-0.778-0.047
	c-0.614,0-1.191,0.123-1.731,0.365c-0.54,0.244-1.012,0.604-1.414,1.08c-0.402,0.477-0.72,1.064-0.953,1.764
	c-0.233,0.697-0.349,1.504-0.349,2.414v7.812h-3.621V179.09z M127.178,179.09h3.843l3.208,12.262h0.063l3.081-12.262h3.652
	l2.955,12.262h0.062l3.336-12.262h3.684l-5.145,16.422h-3.717l-3.049-12.197h-0.064l-3.018,12.197h-3.811L127.178,179.09z
	 M168.723,191.859c0,0.445,0.059,0.762,0.176,0.953c0.115,0.189,0.344,0.285,0.683,0.285c0.105,0,0.232,0,0.381,0
	c0.147,0,0.317-0.02,0.509-0.062v2.51c-0.127,0.041-0.292,0.09-0.492,0.143c-0.202,0.053-0.408,0.1-0.62,0.143
	c-0.212,0.041-0.424,0.074-0.636,0.096c-0.211,0.02-0.392,0.031-0.539,0.031c-0.742,0-1.355-0.148-1.843-0.445
	c-0.487-0.295-0.805-0.814-0.952-1.557c-0.721,0.699-1.604,1.207-2.652,1.525c-1.049,0.318-2.061,0.477-3.033,0.477
	c-0.742,0-1.451-0.102-2.129-0.303c-0.678-0.199-1.275-0.496-1.795-0.889c-0.519-0.391-0.932-0.889-1.238-1.492
	s-0.461-1.309-0.461-2.113c0-1.016,0.186-1.842,0.557-2.477c0.369-0.637,0.857-1.133,1.461-1.494
	c0.604-0.359,1.281-0.619,2.033-0.777c0.751-0.158,1.508-0.281,2.271-0.365c0.656-0.127,1.28-0.217,1.874-0.27
	c0.592-0.053,1.117-0.143,1.572-0.271c0.455-0.127,0.814-0.322,1.08-0.586c0.264-0.266,0.396-0.662,0.396-1.191
	c0-0.467-0.111-0.848-0.333-1.145c-0.223-0.295-0.498-0.523-0.826-0.682c-0.329-0.16-0.694-0.266-1.096-0.318
	c-0.402-0.053-0.784-0.08-1.144-0.08c-1.016,0-1.854,0.213-2.51,0.637s-1.027,1.08-1.111,1.969h-3.621
	c0.064-1.059,0.318-1.938,0.763-2.637s1.011-1.26,1.699-1.684s1.466-0.719,2.335-0.889c0.867-0.17,1.757-0.254,2.668-0.254
	c0.805,0,1.599,0.084,2.382,0.254s1.487,0.443,2.112,0.826c0.625,0.381,1.128,0.873,1.509,1.477c0.382,0.604,0.571,1.34,0.571,2.207
	V191.859z M165.102,187.285c-0.551,0.361-1.228,0.578-2.032,0.652c-0.806,0.074-1.609,0.186-2.414,0.332
	c-0.381,0.064-0.752,0.154-1.112,0.271c-0.359,0.115-0.678,0.275-0.952,0.477c-0.275,0.201-0.492,0.465-0.651,0.793
	c-0.158,0.328-0.238,0.727-0.238,1.191c0,0.402,0.116,0.742,0.35,1.016c0.232,0.275,0.514,0.492,0.842,0.652
	c0.328,0.158,0.688,0.27,1.08,0.332c0.392,0.064,0.746,0.096,1.064,0.096c0.401,0,0.836-0.053,1.302-0.158s0.905-0.285,1.318-0.541
	c0.413-0.254,0.757-0.576,1.032-0.969c0.275-0.391,0.412-0.873,0.412-1.443V187.285z M172.408,179.09h3.971l4.287,12.262h0.064
	l4.16-12.262h3.779l-6.384,17.312c-0.297,0.74-0.587,1.449-0.874,2.127c-0.285,0.678-0.635,1.275-1.048,1.795
	s-0.927,0.932-1.54,1.238c-0.615,0.307-1.398,0.461-2.351,0.461c-0.847,0-1.684-0.062-2.509-0.189v-3.051
	c0.295,0.043,0.582,0.09,0.857,0.143c0.274,0.053,0.561,0.08,0.857,0.08c0.423,0,0.772-0.053,1.048-0.158
	c0.274-0.107,0.503-0.26,0.683-0.461s0.334-0.439,0.461-0.715s0.243-0.594,0.35-0.953l0.412-1.27L172.408,179.09z"/>
</svg>
