<?xml version="1.0" encoding="utf-8"?>
<!-- Generator: Adobe Illustrator 16.0.0, SVG Export Plug-In . SVG Version: 6.00 Build 0)  -->
<!DOCTYPE svg PUBLIC "-//W3C//DTD SVG 1.1//EN" "http://www.w3.org/Graphics/SVG/1.1/DTD/svg11.dtd">
<svg version="1.1" id="share" xmlns="http://www.w3.org/2000/svg" xmlns:xlink="http://www.w3.org/1999/xlink" x="0px" y="0px"
	 width="235px" height="210px" viewBox="0 0 235 210" enable-background="new 0 0 235 210" xml:space="preserve">
<path display="none" d="M118.426,18.676c23.06,0,41.751,18.691,41.751,41.75s-18.691,41.75-41.751,41.75
	c-23.062,0-41.752-18.69-41.752-41.75C76.673,37.367,95.366,18.676,118.426,18.676 M118.426,13.676
	c-25.779,0-46.752,20.972-46.752,46.75c0,25.776,20.974,46.75,46.752,46.75c25.776,0,46.751-20.976,46.751-46.75
	C165.177,34.65,144.206,13.676,118.426,13.676L118.426,13.676z M126.542,59.53c-3.117,1.202-5.732,3.415-7.64,5.649
	c-0.289,0.34-0.562,0.685-0.824,1.016v21.174l-0.854,0.172l-1.096-0.529V68.956c-0.508,0.795-0.785,1.306-0.789,1.313
	c-0.438,0.812-1.282,1.322-2.205,1.322h-0.387c-1.215,0-2.256-0.881-2.469-2.076c-0.01-0.066-0.04-0.196-0.068-0.332
	c-0.314-1.399-0.979-4.315,0.266-11.543c0.818-4.767,3.038-9.168,6.306-12.573l-10.565-6.037c-0.021-0.009-0.031-0.011-0.045-0.018
	c-0.045-0.021-0.099-0.036-0.144-0.048c-0.05-0.016-0.104-0.028-0.162-0.032c-0.02-0.001-0.032-0.014-0.056-0.014
	c-0.029,0-0.061,0.018-0.089,0.021c-0.037,0.006-0.07-0.003-0.106,0.007l-12.896,3.225c-0.361,0.093-0.61,0.412-0.61,0.781v42.22
	c0,0.254,0.113,0.483,0.312,0.639c0.194,0.151,0.449,0.207,0.688,0.146l12.592-3.146l11.011,6.289
	c0.021,0.013,0.037,0.015,0.059,0.022c0.021,0.01,0.042,0.021,0.062,0.023c0.093,0.03,0.185,0.058,0.28,0.058
	c0.063,0,0.129-0.006,0.194-0.023l12.899-3.226c0.359-0.091,0.609-0.411,0.609-0.782V58.47
	C129.71,58.556,128.931,58.612,126.542,59.53z M106.791,81.477l-0.574-0.229c-0.125-0.069-0.264-0.104-0.402-0.104
	c-0.062,0-0.13,0.013-0.195,0.022l-0.771,0.155v-40.56l0.854-0.172l1.096,0.528v40.358L106.791,81.477L106.791,81.477z
	 M149.95,47.85l-11.98,18.977h-0.123V55.562c-1.529-0.031-4.289-0.731-10.953,1.094c-7.74,2.118-13.594,12.171-13.594,12.171h-0.394
	c-0.192-1.11-1.139-3.397,0.193-11.149c1.667-9.688,9.636-17.668,20.621-17.668c1.176,0,2.852,0.104,4.123,0.295v-11.43h0.123
	L149.95,47.85z"/>
<g display="none">
	<path display="inline" d="M104.847,40.761v40.56l0.771-0.155c0.065-0.01,0.134-0.022,0.195-0.022c0.139,0,0.277,0.035,0.402,0.104
		l0.574,0.229v-0.001h0.006V41.117l-1.096-0.528L104.847,40.761z"/>
	<path display="inline" d="M118.426,13.676c-25.779,0-46.752,20.972-46.752,46.75c0,25.776,20.974,46.75,46.752,46.75
		c25.776,0,46.751-20.976,46.751-46.75C165.177,34.65,144.206,13.676,118.426,13.676z M130.813,85.172
		c0,0.371-0.25,0.691-0.609,0.782l-12.899,3.226c-0.065,0.018-0.131,0.023-0.194,0.023c-0.096,0-0.188-0.027-0.28-0.058
		c-0.021-0.003-0.041-0.014-0.062-0.023c-0.021-0.008-0.038-0.01-0.059-0.022l-11.011-6.289l-12.592,3.146
		c-0.238,0.061-0.493,0.005-0.688-0.146c-0.198-0.155-0.312-0.385-0.312-0.639v-42.22c0-0.369,0.249-0.688,0.61-0.781l12.896-3.225
		c0.036-0.01,0.069-0.001,0.106-0.007c0.028-0.003,0.06-0.021,0.089-0.021c0.023,0,0.036,0.013,0.056,0.014
		c0.059,0.004,0.112,0.017,0.162,0.032c0.045,0.012,0.099,0.027,0.144,0.048c0.014,0.007,0.023,0.009,0.045,0.018l10.565,6.037
		c-3.268,3.405-5.487,7.807-6.306,12.573c-1.245,7.228-0.58,10.144-0.266,11.543c0.028,0.136,0.059,0.266,0.068,0.332
		c0.213,1.195,1.254,2.076,2.469,2.076h0.387c0.923,0,1.767-0.51,2.205-1.322c0.004-0.008,0.281-0.519,0.789-1.313v18.056
		l1.096,0.529l0.854-0.172V66.195c0.262-0.331,0.535-0.676,0.824-1.016c1.907-2.234,4.522-4.447,7.64-5.649
		c2.389-0.918,3.168-0.975,4.271-1.061V85.172z M137.97,66.826h-0.123V55.562c-1.529-0.031-4.289-0.731-10.953,1.094
		c-7.74,2.118-13.594,12.171-13.594,12.171h-0.394c-0.192-1.11-1.139-3.397,0.193-11.149c1.667-9.688,9.636-17.668,20.621-17.668
		c1.176,0,2.852,0.104,4.123,0.295v-11.43h0.123L149.95,47.85L137.97,66.826z"/>
</g>
<path d="M105.701,40.589l1.096,0.528v40.358h-0.006v0.001l-0.574-0.229c-0.125-0.069-0.264-0.104-0.402-0.104
	c-0.062,0-0.13,0.013-0.195,0.022l-0.771,0.155v-40.56L105.701,40.589z M165.177,60.426c0,25.774-20.975,46.75-46.751,46.75
	c-25.779,0-46.752-20.974-46.752-46.75c0-25.778,20.974-46.75,46.752-46.75C144.206,13.676,165.177,34.65,165.177,60.426z
	 M130.813,58.47c-1.104,0.086-1.883,0.143-4.271,1.061c-3.117,1.202-5.732,3.415-7.64,5.649c-0.289,0.34-0.562,0.685-0.824,1.016
	v21.174l-0.854,0.172l-1.096-0.529V68.956c-0.508,0.795-0.785,1.306-0.789,1.313c-0.438,0.812-1.282,1.322-2.205,1.322h-0.387
	c-1.215,0-2.256-0.881-2.469-2.076c-0.01-0.066-0.04-0.196-0.068-0.332c-0.314-1.399-0.979-4.315,0.266-11.543
	c0.818-4.767,3.038-9.168,6.306-12.573l-10.565-6.037c-0.021-0.009-0.031-0.011-0.045-0.018c-0.045-0.021-0.099-0.036-0.144-0.048
	c-0.05-0.016-0.104-0.028-0.162-0.032c-0.02-0.001-0.032-0.014-0.056-0.014c-0.029,0-0.061,0.018-0.089,0.021
	c-0.037,0.006-0.07-0.003-0.106,0.007l-12.896,3.225c-0.361,0.093-0.61,0.412-0.61,0.781v42.22c0,0.254,0.113,0.483,0.312,0.639
	c0.194,0.151,0.449,0.207,0.688,0.146l12.592-3.146l11.011,6.289c0.021,0.013,0.037,0.015,0.059,0.022
	c0.021,0.01,0.042,0.021,0.062,0.023c0.093,0.03,0.185,0.058,0.28,0.058c0.063,0,0.129-0.006,0.194-0.023l12.899-3.226
	c0.359-0.091,0.609-0.411,0.609-0.782V58.47z M149.95,47.85l-11.984-18.975h-0.123v11.43c-1.271-0.19-2.947-0.295-4.123-0.295
	c-10.984,0-18.954,7.98-20.621,17.668c-1.332,7.752-0.386,10.039-0.193,11.149h0.394c0,0,5.854-10.053,13.594-12.171
	c6.664-1.825,9.424-1.125,10.953-1.094v11.264h0.123L149.95,47.85z M24.618,153.939c0,1.969,0.335,3.648,1.008,5.039
	c0.672,1.393,1.607,2.533,2.809,3.42c1.199,0.889,2.579,1.537,4.14,1.943c1.56,0.41,3.251,0.613,5.076,0.613
	c1.968,0,3.647-0.229,5.04-0.684c1.392-0.457,2.52-1.045,3.384-1.766c0.864-0.719,1.487-1.547,1.872-2.482
	c0.384-0.938,0.576-1.885,0.576-2.846c0-1.967-0.444-3.42-1.332-4.355c-0.889-0.936-1.861-1.596-2.916-1.98
	c-1.825-0.67-3.949-1.307-6.372-1.906c-2.425-0.6-5.412-1.381-8.964-2.342c-2.209-0.574-4.045-1.33-5.508-2.268
	c-1.465-0.936-2.629-1.979-3.492-3.131c-0.864-1.152-1.477-2.377-1.836-3.672c-0.36-1.297-0.54-2.617-0.54-3.961
	c0-2.592,0.54-4.836,1.62-6.732c1.079-1.895,2.507-3.467,4.283-4.715c1.775-1.248,3.792-2.172,6.049-2.773
	c2.255-0.6,4.535-0.898,6.84-0.898c2.688,0,5.22,0.348,7.596,1.043c2.376,0.697,4.464,1.74,6.264,3.133
	c1.801,1.393,3.228,3.107,4.284,5.148c1.056,2.039,1.584,4.404,1.584,7.092h-9c-0.24-3.312-1.368-5.652-3.384-7.021
	c-2.016-1.367-4.584-2.051-7.704-2.051c-1.057,0-2.137,0.107-3.24,0.324c-1.104,0.215-2.112,0.576-3.023,1.08
	c-0.913,0.504-1.669,1.188-2.269,2.051c-0.601,0.865-0.899,1.945-0.899,3.24c0,1.824,0.563,3.252,1.691,4.285
	c1.128,1.031,2.604,1.811,4.429,2.34c0.19,0.047,0.947,0.252,2.268,0.611c1.319,0.359,2.796,0.756,4.428,1.188
	s3.228,0.854,4.788,1.26c1.56,0.408,2.676,0.709,3.349,0.9c1.679,0.529,3.143,1.25,4.392,2.16c1.248,0.912,2.292,1.957,3.132,3.133
	c0.839,1.176,1.464,2.436,1.872,3.779c0.407,1.344,0.612,2.689,0.612,4.031c0,2.881-0.589,5.342-1.765,7.381
	c-1.177,2.041-2.725,3.707-4.644,5.004c-1.921,1.297-4.104,2.244-6.552,2.844c-2.448,0.6-4.944,0.9-7.488,0.9
	c-2.929,0-5.688-0.359-8.28-1.08s-4.849-1.824-6.768-3.312c-1.921-1.486-3.456-3.395-4.608-5.723
	c-1.151-2.328-1.753-5.076-1.8-8.244H24.618z M67.818,119.666h8.208v19.08h0.144c1.008-1.68,2.508-3.084,4.5-4.211
	c1.991-1.127,4.212-1.693,6.66-1.693c4.079,0,7.296,1.057,9.648,3.168c2.351,2.113,3.527,5.281,3.527,9.506v25.559h-8.208v-23.4
	c-0.097-2.926-0.72-5.051-1.872-6.371c-1.151-1.32-2.952-1.98-5.399-1.98c-1.394,0-2.641,0.252-3.744,0.756
	c-1.104,0.504-2.041,1.201-2.809,2.088c-0.768,0.889-1.367,1.934-1.8,3.133c-0.432,1.201-0.647,2.473-0.647,3.816v21.959h-8.208
	V119.666z M143.921,162.795c0,1.008,0.132,1.729,0.396,2.16s0.78,0.648,1.549,0.648c0.239,0,0.527,0,0.863,0
	s0.721-0.049,1.152-0.145v5.688c-0.288,0.096-0.66,0.203-1.116,0.324c-0.457,0.119-0.925,0.227-1.404,0.324
	c-0.479,0.096-0.96,0.168-1.439,0.215c-0.48,0.049-0.889,0.072-1.224,0.072c-1.682,0-3.073-0.336-4.177-1.008
	c-1.104-0.672-1.824-1.848-2.16-3.527c-1.632,1.584-3.636,2.736-6.012,3.455c-2.376,0.721-4.669,1.08-6.876,1.08
	c-1.681,0-3.288-0.229-4.824-0.684s-2.892-1.127-4.067-2.016c-1.177-0.889-2.113-2.016-2.809-3.385
	c-0.696-1.367-1.044-2.963-1.044-4.787c0-2.305,0.42-4.176,1.261-5.617c0.839-1.439,1.943-2.566,3.312-3.383
	s2.903-1.404,4.608-1.764c1.703-0.361,3.42-0.637,5.147-0.828c1.487-0.289,2.903-0.492,4.248-0.613
	c1.344-0.119,2.531-0.322,3.564-0.611c1.031-0.287,1.847-0.73,2.447-1.332c0.6-0.6,0.9-1.5,0.9-2.699
	c0-1.057-0.252-1.92-0.756-2.592s-1.129-1.189-1.872-1.549c-0.745-0.359-1.573-0.6-2.484-0.721c-0.912-0.119-1.776-0.18-2.592-0.18
	c-2.304,0-4.2,0.48-5.688,1.441c-1.488,0.959-2.329,2.447-2.521,4.463h-8.208c0.145-2.4,0.72-4.393,1.729-5.977
	c1.008-1.584,2.291-2.855,3.852-3.814c1.56-0.961,3.323-1.633,5.292-2.018c1.968-0.383,3.983-0.576,6.048-0.576
	c1.824,0,3.624,0.193,5.4,0.576c1.775,0.385,3.371,1.008,4.788,1.873c1.415,0.863,2.556,1.98,3.42,3.348s1.296,3.037,1.296,5.004
	V162.795z M135.713,152.426c-1.249,0.818-2.784,1.309-4.608,1.477c-1.824,0.17-3.648,0.422-5.472,0.756
	c-0.864,0.145-1.704,0.35-2.52,0.613c-0.817,0.264-1.537,0.623-2.16,1.08c-0.625,0.455-1.116,1.055-1.477,1.799
	c-0.359,0.744-0.54,1.645-0.54,2.701c0,0.912,0.264,1.68,0.792,2.303c0.528,0.625,1.163,1.117,1.908,1.477
	c0.744,0.359,1.56,0.611,2.448,0.756c0.888,0.145,1.691,0.217,2.412,0.217c0.911,0,1.896-0.119,2.952-0.361
	c1.055-0.238,2.052-0.648,2.987-1.223c0.937-0.576,1.716-1.309,2.34-2.197c0.624-0.887,0.937-1.98,0.937-3.275V152.426z
	 M156.377,133.852h7.704v7.199h0.144c0.239-1.008,0.708-1.992,1.404-2.951c0.695-0.961,1.535-1.836,2.52-2.629
	c0.983-0.793,2.076-1.428,3.276-1.908c1.199-0.479,2.423-0.721,3.672-0.721c0.96,0,1.62,0.025,1.979,0.072
	c0.36,0.049,0.731,0.098,1.116,0.145v7.92c-0.576-0.096-1.164-0.18-1.764-0.252c-0.601-0.072-1.188-0.107-1.764-0.107
	c-1.394,0-2.7,0.275-3.925,0.828c-1.224,0.553-2.292,1.367-3.203,2.447c-0.913,1.08-1.633,2.412-2.16,3.996
	c-0.529,1.584-0.792,3.408-0.792,5.473v17.711h-8.208V133.852z M190.433,154.586c0,1.441,0.204,2.834,0.612,4.178
	c0.407,1.344,1.02,2.52,1.836,3.527c0.815,1.008,1.848,1.812,3.097,2.412c1.247,0.6,2.735,0.9,4.464,0.9
	c2.399,0,4.331-0.516,5.796-1.549c1.464-1.031,2.556-2.58,3.275-4.645h7.776c-0.432,2.016-1.177,3.816-2.232,5.4
	s-2.328,2.916-3.815,3.996c-1.488,1.08-3.157,1.896-5.004,2.447c-1.849,0.553-3.78,0.828-5.796,0.828
	c-2.929,0-5.521-0.48-7.776-1.439c-2.257-0.959-4.165-2.305-5.724-4.031c-1.561-1.729-2.736-3.791-3.528-6.193
	c-0.792-2.398-1.188-5.039-1.188-7.92c0-2.639,0.42-5.146,1.261-7.523c0.839-2.375,2.039-4.465,3.6-6.264
	c1.56-1.801,3.443-3.229,5.652-4.285c2.207-1.055,4.703-1.584,7.487-1.584c2.928,0,5.556,0.613,7.885,1.836
	c2.327,1.225,4.259,2.846,5.796,4.861c1.535,2.016,2.651,4.332,3.348,6.947c0.695,2.617,0.875,5.316,0.54,8.1H190.433z
	 M209.585,149.188c-0.097-1.297-0.372-2.545-0.828-3.744s-1.08-2.244-1.872-3.133c-0.792-0.887-1.752-1.607-2.88-2.16
	c-1.128-0.551-2.388-0.828-3.78-0.828c-1.439,0-2.748,0.252-3.924,0.756c-1.177,0.504-2.185,1.201-3.023,2.088
	c-0.841,0.889-1.513,1.934-2.017,3.133c-0.504,1.201-0.78,2.496-0.828,3.889H209.585z M20.376,179.09h3.971l4.288,12.262h0.064
	l4.161-12.262h3.78l-6.384,17.312c-0.297,0.74-0.587,1.449-0.874,2.127c-0.286,0.678-0.635,1.275-1.048,1.795
	c-0.413,0.52-0.926,0.932-1.541,1.238s-1.397,0.461-2.35,0.461c-0.847,0-1.684-0.062-2.509-0.189v-3.051
	c0.296,0.043,0.582,0.09,0.857,0.143c0.275,0.053,0.561,0.08,0.857,0.08c0.423,0,0.773-0.053,1.048-0.158
	c0.275-0.107,0.503-0.26,0.683-0.461c0.18-0.201,0.333-0.439,0.46-0.715s0.243-0.594,0.35-0.953l0.413-1.27L20.376,179.09z
	 M52.552,195.957c-1.313,0-2.483-0.217-3.51-0.65c-1.027-0.436-1.896-1.033-2.604-1.795c-0.71-0.764-1.25-1.674-1.62-2.732
	c-0.371-1.059-0.556-2.223-0.556-3.494c0-1.248,0.185-2.402,0.556-3.461c0.37-1.059,0.91-1.971,1.62-2.732
	c0.709-0.762,1.577-1.361,2.604-1.795c1.027-0.434,2.197-0.65,3.51-0.65s2.482,0.217,3.51,0.65c1.027,0.434,1.895,1.033,2.605,1.795
	c0.709,0.762,1.249,1.674,1.62,2.732c0.37,1.059,0.556,2.213,0.556,3.461c0,1.271-0.186,2.436-0.556,3.494
	c-0.371,1.059-0.911,1.969-1.62,2.732c-0.71,0.762-1.578,1.359-2.605,1.795C55.035,195.74,53.865,195.957,52.552,195.957z
	 M52.552,193.098c0.805,0,1.503-0.168,2.097-0.508c0.592-0.338,1.08-0.783,1.461-1.334s0.662-1.17,0.842-1.857
	c0.18-0.689,0.27-1.393,0.27-2.113c0-0.699-0.09-1.396-0.27-2.096c-0.18-0.699-0.46-1.318-0.842-1.859
	c-0.381-0.539-0.869-0.979-1.461-1.316c-0.593-0.34-1.292-0.51-2.097-0.51s-1.504,0.17-2.096,0.51
	c-0.593,0.338-1.08,0.777-1.461,1.316c-0.381,0.541-0.662,1.16-0.841,1.859c-0.18,0.699-0.27,1.396-0.27,2.096
	c0,0.721,0.09,1.424,0.27,2.113c0.18,0.688,0.46,1.307,0.841,1.857c0.381,0.551,0.868,0.996,1.461,1.334
	C51.048,192.93,51.748,193.098,52.552,193.098z M84.632,195.512h-3.557v-2.287h-0.064c-0.444,0.826-1.106,1.488-1.985,1.986
	c-0.879,0.496-1.774,0.746-2.684,0.746c-2.16,0-3.722-0.535-4.685-1.604c-0.964-1.07-1.445-2.686-1.445-4.844v-10.42h3.621v10.07
	c0,1.439,0.275,2.457,0.826,3.049c0.55,0.594,1.323,0.889,2.319,0.889c0.762,0,1.397-0.115,1.906-0.35
	c0.508-0.232,0.921-0.545,1.239-0.936c0.318-0.393,0.545-0.863,0.683-1.414c0.137-0.551,0.206-1.145,0.206-1.779v-9.529h3.621
	V195.512z M94.796,179.09h3.399v3.178h0.063c0.105-0.445,0.312-0.879,0.619-1.303c0.307-0.424,0.678-0.811,1.112-1.16
	c0.434-0.35,0.916-0.629,1.445-0.842c0.529-0.211,1.069-0.316,1.62-0.316c0.423,0,0.715,0.01,0.874,0.031
	c0.159,0.021,0.323,0.043,0.493,0.062v3.494c-0.254-0.041-0.514-0.078-0.778-0.111c-0.265-0.031-0.524-0.047-0.778-0.047
	c-0.614,0-1.191,0.123-1.731,0.365c-0.54,0.244-1.012,0.604-1.414,1.08c-0.402,0.477-0.72,1.064-0.953,1.764
	c-0.233,0.697-0.349,1.504-0.349,2.414v7.812h-3.621V179.09z M144.203,179.09h3.843l3.208,12.262h0.063l3.081-12.262h3.652
	l2.955,12.262h0.062l3.336-12.262h3.684l-5.145,16.422h-3.717l-3.049-12.197h-0.064l-3.018,12.197h-3.811L144.203,179.09z
	 M190.514,191.859c0,0.445,0.058,0.762,0.174,0.953c0.117,0.189,0.344,0.285,0.684,0.285c0.105,0,0.232,0,0.381,0
	s0.318-0.02,0.508-0.062v2.51c-0.127,0.041-0.291,0.09-0.492,0.143s-0.408,0.1-0.619,0.143c-0.212,0.041-0.424,0.074-0.635,0.096
	c-0.213,0.02-0.393,0.031-0.541,0.031c-0.74,0-1.355-0.148-1.842-0.445c-0.487-0.295-0.805-0.814-0.953-1.557
	c-0.72,0.699-1.604,1.207-2.652,1.525c-1.048,0.318-2.059,0.477-3.033,0.477c-0.741,0-1.45-0.102-2.128-0.303
	c-0.678-0.199-1.276-0.496-1.794-0.889c-0.52-0.391-0.933-0.889-1.239-1.492c-0.308-0.604-0.46-1.309-0.46-2.113
	c0-1.016,0.185-1.842,0.555-2.477c0.371-0.637,0.857-1.133,1.461-1.494c0.604-0.359,1.281-0.619,2.033-0.777s1.51-0.281,2.271-0.365
	c0.656-0.127,1.281-0.217,1.874-0.27s1.116-0.143,1.572-0.271c0.455-0.127,0.815-0.322,1.08-0.586
	c0.265-0.266,0.397-0.662,0.397-1.191c0-0.467-0.111-0.848-0.334-1.145c-0.223-0.295-0.498-0.523-0.826-0.682
	c-0.328-0.16-0.693-0.266-1.096-0.318s-0.783-0.08-1.144-0.08c-1.017,0-1.853,0.213-2.509,0.637
	c-0.657,0.424-1.027,1.08-1.112,1.969h-3.62c0.062-1.059,0.316-1.938,0.762-2.637s1.011-1.26,1.699-1.684
	c0.688-0.424,1.467-0.719,2.334-0.889c0.869-0.17,1.758-0.254,2.669-0.254c0.804,0,1.599,0.084,2.382,0.254s1.488,0.443,2.112,0.826
	c0.624,0.381,1.128,0.873,1.509,1.477s0.572,1.34,0.572,2.207V191.859z M186.893,187.285c-0.551,0.361-1.229,0.578-2.033,0.652
	s-1.609,0.186-2.414,0.332c-0.381,0.064-0.752,0.154-1.111,0.271c-0.36,0.115-0.678,0.275-0.953,0.477s-0.492,0.465-0.651,0.793
	s-0.238,0.727-0.238,1.191c0,0.402,0.116,0.742,0.35,1.016c0.233,0.275,0.513,0.492,0.842,0.652c0.328,0.158,0.688,0.27,1.08,0.332
	c0.392,0.064,0.746,0.096,1.063,0.096c0.402,0,0.837-0.053,1.303-0.158c0.465-0.105,0.905-0.285,1.318-0.541
	c0.412-0.254,0.757-0.576,1.032-0.969c0.274-0.391,0.413-0.873,0.413-1.443V187.285z M198.962,179.09h3.971l4.288,12.262h0.063
	l4.161-12.262h3.779l-6.385,17.312c-0.297,0.74-0.587,1.449-0.873,2.127c-0.285,0.678-0.635,1.275-1.049,1.795
	c-0.412,0.52-0.926,0.932-1.54,1.238s-1.397,0.461-2.351,0.461c-0.847,0-1.684-0.062-2.509-0.189v-3.051
	c0.296,0.043,0.582,0.09,0.857,0.143c0.274,0.053,0.562,0.08,0.857,0.08c0.423,0,0.772-0.053,1.048-0.158
	c0.275-0.107,0.504-0.26,0.684-0.461s0.334-0.439,0.461-0.715s0.242-0.594,0.35-0.953l0.412-1.27L198.962,179.09z"/>
</svg>
