<?xml version="1.0" encoding="utf-8"?>
<!-- Generator: Adobe Illustrator 16.0.0, SVG Export Plug-In . SVG Version: 6.00 Build 0)  -->
<!DOCTYPE svg PUBLIC "-//W3C//DTD SVG 1.1//EN" "http://www.w3.org/Graphics/SVG/1.1/DTD/svg11.dtd">
<svg version="1.1" id="find" xmlns="http://www.w3.org/2000/svg" xmlns:xlink="http://www.w3.org/1999/xlink" x="0px" y="0px"
	 width="110px" height="110px" viewBox="0 0 110 110" enable-background="new 0 0 110 110" xml:space="preserve">
<path d="M66.819,44.353c1.261,1.504,1.772,3.557,1.408,5.643c-0.462,2.601-2.523,4.701-4.188,6.391
	c-0.244,0.256-0.49,0.504-0.722,0.744c-2.209,2.312-4.488,4.479-6.776,6.422l-0.789,0.672l-0.74-0.726
	c-0.691-0.659-1.375-1.315-2.058-1.959c-1.221-1.155-2.477-2.354-3.704-3.604c-0.353-0.358-0.744-0.735-1.162-1.146
	c-1.758-1.688-3.744-3.607-4.56-5.794c-0.679-1.82-0.396-3.884,0.769-5.664c1.246-1.901,3.315-3.147,5.401-3.261
	c0.115-0.009,0.226-0.009,0.341-0.009c2.733,0,4.602,1.722,5.666,3.097c1.036-1.345,2.893-2.896,5.956-3.021
	c0.093-0.002,0.185-0.002,0.277-0.002C63.882,42.135,65.618,42.92,66.819,44.353z M102.472,54.592
	c0,25.775-20.971,46.75-46.748,46.75c-25.778,0-46.752-20.973-46.752-46.75c0-25.778,20.974-46.75,46.752-46.75
	C81.501,7.842,102.472,28.815,102.472,54.592z M75.782,45.531c-0.001-11.104-9.032-20.132-20.13-20.132
	c-11.101,0-20.127,9.027-20.127,20.132c0,3.237,0.787,6.457,2.293,9.332l16.731,30.275c0.222,0.396,0.644,0.646,1.103,0.646
	c0.457,0,0.877-0.248,1.103-0.646l16.748-30.297C74.993,51.988,75.782,48.768,75.782,45.531z"/>
</svg>
