<?xml version="1.0" encoding="utf-8"?>
<!-- Generator: Adobe Illustrator 16.0.0, SVG Export Plug-In . SVG Version: 6.00 Build 0)  -->
<!DOCTYPE svg PUBLIC "-//W3C//DTD SVG 1.1//EN" "http://www.w3.org/Graphics/SVG/1.1/DTD/svg11.dtd">
<svg version="1.1" id="share" xmlns="http://www.w3.org/2000/svg" xmlns:xlink="http://www.w3.org/1999/xlink" x="0px" y="0px"
	 width="110px" height="110px" viewBox="0 0 110 110" enable-background="new 0 0 110 110" xml:space="preserve">
<path d="M42.998,34.755l1.096,0.528v40.357h-0.006v0.002l-0.574-0.229c-0.125-0.069-0.264-0.104-0.402-0.104
	c-0.062,0-0.13,0.014-0.195,0.022l-0.771,0.155V34.926L42.998,34.755z M102.475,54.592c0,25.774-20.976,46.75-46.752,46.75
	c-25.779,0-46.751-20.974-46.751-46.75c0-25.778,20.974-46.75,46.751-46.75C81.503,7.842,102.475,28.816,102.475,54.592z
	 M68.111,52.636c-1.104,0.086-1.883,0.144-4.271,1.062c-3.117,1.202-5.732,3.415-7.64,5.648c-0.289,0.34-0.562,0.686-0.824,1.017
	v21.174l-0.854,0.172l-1.096-0.529V63.122c-0.508,0.795-0.785,1.306-0.789,1.313c-0.438,0.812-1.282,1.321-2.205,1.321h-0.387
	c-1.215,0-2.256-0.881-2.469-2.075c-0.01-0.066-0.04-0.197-0.068-0.332c-0.314-1.399-0.979-4.315,0.266-11.543
	c0.818-4.767,3.038-9.168,6.306-12.573l-10.565-6.037c-0.021-0.009-0.031-0.011-0.045-0.019c-0.045-0.021-0.099-0.036-0.144-0.048
	c-0.05-0.016-0.104-0.028-0.162-0.032c-0.02-0.001-0.032-0.014-0.056-0.014c-0.029,0-0.061,0.018-0.089,0.021
	c-0.037,0.006-0.07-0.003-0.106,0.007l-12.896,3.225c-0.361,0.093-0.61,0.412-0.61,0.781v42.22c0,0.254,0.113,0.483,0.312,0.639
	c0.194,0.151,0.449,0.207,0.688,0.146l12.592-3.146l11.011,6.289c0.021,0.014,0.037,0.016,0.059,0.022
	c0.021,0.01,0.042,0.021,0.062,0.022c0.093,0.03,0.185,0.059,0.28,0.059c0.063,0,0.129-0.006,0.194-0.023l12.899-3.226
	c0.359-0.091,0.609-0.411,0.609-0.782V52.636H68.111z M87.248,42.016L75.264,23.041h-0.123v11.43
	c-1.271-0.189-2.947-0.295-4.123-0.295c-10.984,0-18.955,7.98-20.622,17.668c-1.332,7.752-0.386,10.039-0.193,11.149h0.394
	c0,0,5.854-10.053,13.594-12.171c6.664-1.825,9.424-1.125,10.953-1.094v11.264h0.123L87.248,42.016z"/>
</svg>
