<?xml version="1.0" encoding="utf-8"?>
<!-- Generator: Adobe Illustrator 16.0.0, SVG Export Plug-In . SVG Version: 6.00 Build 0)  -->
<!DOCTYPE svg PUBLIC "-//W3C//DTD SVG 1.1//EN" "http://www.w3.org/Graphics/SVG/1.1/DTD/svg11.dtd">
<svg version="1.1" id="plan" xmlns="http://www.w3.org/2000/svg" xmlns:xlink="http://www.w3.org/1999/xlink" x="0px" y="0px"
	 width="110px" height="110px" viewBox="0 0 110 110" enable-background="new 0 0 110 110" xml:space="preserve">
<path d="M69.689,30.828l5.254,1.851l-1.541,4.379l-5.254-1.852L69.689,30.828z M102.473,54.592c0,25.773-20.972,46.75-46.75,46.75
	c-25.778,0-46.751-20.974-46.751-46.75c0-25.778,20.974-46.75,46.751-46.75C81.501,7.842,102.473,28.816,102.473,54.592z
	 M32.113,43.805h19.479v-3.479H32.113V43.805z M32.113,61.334h19.479v-3.479H32.113V61.334z M68.295,75.166L64.6,73.865
	l-3.244,1.555l-2.588-0.911l-1.559-3.241l-3.691-1.304l3.042,6.347H32.112v3.479h26.115l0.08,0.164L68.295,75.166z M78.691,45.61
	l-14.771-5.2L53.518,69.962l14.777,5.203L78.691,45.61z M79.797,29.897L72.9,27.47c-2.176-0.769-4.562,0.376-5.326,2.553
	l-2.406,6.841l14.775,5.201l2.406-6.841C83.118,33.048,81.975,30.662,79.797,29.897z M61.947,69.609l8.32-23.647l-5.254-1.848
	l-8.32,23.646L61.947,69.609z"/>
</svg>
