<?xml version="1.0" encoding="utf-8"?>
<!-- Generator: Adobe Illustrator 16.0.0, SVG Export Plug-In . SVG Version: 6.00 Build 0)  -->
<!DOCTYPE svg PUBLIC "-//W3C//DTD SVG 1.1//EN" "http://www.w3.org/Graphics/SVG/1.1/DTD/svg11.dtd">
<svg version="1.1" id="Layer_1" xmlns="http://www.w3.org/2000/svg" xmlns:xlink="http://www.w3.org/1999/xlink" x="0px" y="0px"
	 width="1000px" height="1000px" viewBox="0 0 1000 1000" enable-background="new 0 0 1000 1000" xml:space="preserve">
<path id="orange" fill="#FF9F00" d="M992.001,400.55l-79.385-28.67l79.385-219.81V400.55z M849.502,546.638l-160.57,444.604H893.68
	c54.272,0,98.321-43.979,98.321-98.19v-294.95L849.502,546.638z M699.016,492.289L417.048,390.455l64.383,150.544l-55.523,38.112
	L104.255,90.589l0.026-0.022c-0.167-0.194-0.312-0.406-0.45-0.622l-0.104-0.159c-0.456-0.771-0.727-1.661-0.727-2.622
	c0-2.901,2.352-5.252,5.252-5.252c0.188,0,0.368,0.033,0.55,0.054l24.879,8.598L762.13,317.531L873.459,9.271H107.07
	c-54.273,0-98.321,43.992-98.321,98.199v785.582c0,54.211,44.048,98.19,98.321,98.19h411.748L699.016,492.289z"/>
</svg>
